# xmcd CD database file
#
# Track frame offsets:
#	150
#	23973
#	64371
#	101694
#	124392
#	158190
#
# Disc length: 2653 seconds
#
# Revision: 0
# Processed by: cddbd v1.5.2PL0 Copyright (c) Steve Scherf et al.
# Submitted via: CDex 1.70beta2
#
DISCID=520a5b06
DTITLE=Al Cohn and Zoot Sims - Mtoring Along
DYEAR=1975
DGENRE=Jazz
TTITLE0=Stockholm - L.A.
TTITLE1=My Funny Valentine
TTITLE2=Yardbird Suite
TTITLE3=Motoring Along
TTITLE4=Fallin'
TTITLE5=What The World Needs Now
EXTD=YEAR: 1975
EXTT0=
EXTT1=
EXTT2=
EXTT3=
EXTT4=
EXTT5=
PLAYORDER=
